<?xml version="1.0" standalone="no"?>
<!DOCTYPE svg PUBLIC "-//W3C//DTD SVG 20010904//EN"
 "http://www.w3.org/TR/2001/REC-SVG-20010904/DTD/svg10.dtd">
<svg version="1.0" xmlns="http://www.w3.org/2000/svg"
 width="100.000000pt" height="100.000000pt" viewBox="0 0 100.000000 100.000000"
 preserveAspectRatio="xMidYMid meet">
<metadata>
Created by potrace 1.16, written by Peter Selinger 2001-2019
</metadata>
<g transform="translate(0.000000,100.000000) scale(0.100000,-0.100000)"
fill="#000000" stroke="none">
<path d="M305 990 c-4 -6 3 -26 15 -46 l22 -35 -41 -36 c-48 -41 -81 -99 -81
-143 0 -28 -2 -30 -40 -30 -27 0 -47 -7 -60 -20 -18 -18 -20 -33 -20 -180 0
-147 2 -162 20 -180 13 -13 33 -20 60 -20 40 0 40 0 40 -38 0 -45 14 -62 52
-62 l28 0 0 -80 c0 -96 16 -120 80 -120 64 0 80 24 80 120 l0 80 40 0 40 0 0
-80 c0 -96 16 -120 80 -120 64 0 80 24 80 120 l0 80 28 0 c38 0 52 17 52 62 0
38 0 38 40 38 27 0 47 7 60 20 18 18 20 33 20 180 0 147 -2 162 -20 180 -13
13 -33 20 -60 20 -38 0 -40 2 -40 30 0 44 -33 102 -81 143 l-41 36 22 35 c12
20 19 40 15 46 -13 20 -45 9 -66 -22 l-21 -33 -108 0 -108 0 -21 33 c-21 31
-53 42 -66 22z m293 -116 c43 -18 88 -58 108 -96 8 -15 14 -29 14 -33 0 -3
-99 -5 -220 -5 -121 0 -220 2 -220 5 0 34 68 106 120 129 46 20 151 20 198 0z
m142 -392 c0 -156 -3 -221 -12 -230 -17 -17 -439 -17 -456 0 -9 9 -12 74 -12
230 l0 218 240 0 240 0 0 -218z m-530 149 c13 -25 13 -237 0 -262 -14 -25 -46
-25 -60 0 -5 11 -10 70 -10 131 0 118 9 150 40 150 11 0 24 -9 30 -19z m640 0
c5 -11 10 -70 10 -131 0 -118 -9 -150 -40 -150 -31 0 -40 32 -40 150 0 61 5
120 10 131 14 25 46 25 60 0z"/>
</g>
</svg>
